<svg width="28" height="28" viewBox="0 0 28 28" fill="none" xmlns="http://www.w3.org/2000/svg">
  <path d="M14 2C7.373 2 2 7.373 2 14C2 20.627 7.373 26 14 26C20.627 26 26 20.627 26 14C26 7.373 20.627 2 14 2ZM14 24C8.486 24 4 19.514 4 14C4 8.486 8.486 4 14 4C19.514 4 24 8.486 24 14C24 19.514 19.514 24 14 24Z" fill="currentColor"/>
  <path d="M14 6C9.589 6 6 9.589 6 14C6 18.411 9.589 22 14 22C18.411 22 22 18.411 22 14C22 9.589 18.411 6 14 6ZM14 20C10.691 20 8 17.309 8 14C8 10.691 10.691 8 14 8C17.309 8 20 10.691 20 14C20 17.309 17.309 20 14 20Z" fill="currentColor"/>
  <path d="M14 10C11.794 10 10 11.794 10 14C10 16.206 11.794 18 14 18C16.206 18 18 16.206 18 14C18 11.794 16.206 10 14 10ZM14 16C12.897 16 12 15.103 12 14C12 12.897 12.897 12 14 12C15.103 12 16 12.897 16 14C16 15.103 15.103 16 14 16Z" fill="currentColor"/>
</svg>